<svg id="Flat" height="512" viewBox="0 0 64 64" width="512" xmlns="http://www.w3.org/2000/svg"><path d="m53.95 34.25c-.35-.52-1.15-.39-1.33.22-.85 2.89-3.28 9.24-8.62 11.53h2.64c.52 0 .78.64.4.99-1.62 1.52-5.3 4.29-11.04 5.01l-.02-.58c.25-.4.49-.8.69-1.2h.01c.56-1.08.97-2.2 1.21-3.36.05-.23.09-.46.13-.69.26-1.6.21-3.26-.15-4.98-.25-1.23-.66-2.5-1.23-3.81h-.01c-.35-.8-.75-1.61-1.22-2.44 0-.01 0-.01 0-.01l-.38-11.07c-.02-.49.33-.93.82-1.01 1.98-.36 6.86-1.25 8.68-1.58.4-.07.78.11 1 .44.54.78 1.44 1.29 2.47 1.29 1.83 0 3.27-1.63 2.96-3.52-.21-1.23-1.22-2.23-2.45-2.44-1.23-.2-2.35.35-2.97 1.25-.2.29-.55.46-.9.43l-7.72-.64c-.52-.05-.92-.48-.92-1v-5.62c1.23-1.09 2-2.69 2-4.46 0-3.31-2.69-6-6-6s-6 2.69-6 6c0 .19.01.37.03.56-.69.54-1.47 1.23-2.24 2.09-.95 1.06-1.87 2.38-2.48 3.95-.29.7-.51 1.46-.64 2.26-.15.91-.19 1.83-.12 2.76l-1.19.1c-.35.03-.7-.14-.9-.43-.62-.9-1.74-1.45-2.97-1.25-1.23.21-2.24 1.21-2.45 2.44-.31 1.89 1.13 3.52 2.96 3.52 1.03 0 1.93-.51 2.47-1.29.22-.33.6-.51 1-.44.43.08 1.03.19 1.72.32.45 1.31 1.12 2.63 2.03 3.95.63.93 1.38 1.87 2.24 2.81.05.05.1.11.15.16 1.07 1.18 2.03 2.3 2.89 3.38.06.08.13.16.19.24l-.61 17.55c-.04 1.27-1.25 2.18-2.49 1.88-2.09-.51-3.85-1.28-5.25-2.09-1.44-.83-2.52-1.69-3.24-2.35-.05-.04-.09-.09-.14-.13-.38-.35-.12-.99.4-.99h2.64c-5.34-2.29-7.77-8.64-8.62-11.53-.18-.61-.98-.74-1.33-.22-2.02 2.96-5.92 10.66 1.95 17.75v-2.13c0-.56.7-.79 1.04-.35.5.66 1.18 1.47 2.03 2.3-.36 2.68.85 4.65 1.96 5.85.09.08.16.16.24.24 1.27 1.28 2.91 2.03 4.64 2.23.33.05.66.07 1 .07 1.38 0 2.78-.34 4.06-1.04.04-.02.07-.04.11-.06.48-.27.94-.54 1.38-.82 1.32 1.03 2.21 2.7 2.76 4.12.31.78 1.39.8 1.76.05 1.2-2.43 3.62-5.83 8.02-6.46 4.91-.7 8.35-4.36 9.96-6.48.34-.44 1.04-.21 1.04.35v2.13c7.87-7.09 3.97-14.79 1.95-17.75zm-21.95-30.25c1.66 0 3 1.34 3 3s-1.34 3-3 3c-.64 0-1.23-.2-1.71-.53.66-.6.85-1.6.4-2.42-.32-.59-.9-.96-1.52-1.03.4-1.18 1.51-2.02 2.83-2.02zm-7.39 12.55c.05-.29.11-.57.19-.85.34-1.15.95-2.14 1.63-2.98.44-.55.92-1.04 1.38-1.44.06.06.13.12.19.18v5.62c0 .52-.4.95-.92 1l-2.53.21c-.06-.59-.03-1.17.06-1.74zm1.39 5.91c.86.15 1.61.29 2.15.39.49.08.84.52.82 1.01l-.08 2.32c-.16-.17-.32-.35-.48-.53-.48-.53-.92-1.05-1.31-1.56-.42-.55-.79-1.09-1.1-1.63zm-3.08 33.74c-.46 0-.91-.07-1.34-.21-.46-.16-.89-.39-1.25-.7.83.33 1.72.58 2.67.71.24.03.47.07.69.12-.25.06-.51.08-.77.08z" fill="#ffc008"/><path d="m53.95 34.25c2.02 2.96 5.92 10.66-1.95 17.75v-2.13c0-.56-.7-.79-1.04-.35-1.61 2.12-5.05 5.78-9.96 6.48-4.4.63-6.82 4.03-8.02 6.46-.37.75-1.45.73-1.76-.05-.55-1.42-1.44-3.09-2.76-4.12 1.05-.64 2.01-1.31 2.89-1.99 1.11-.86 2.08-1.75 2.92-2.66.65-.72 1.22-1.46 1.71-2.22l.02.58c5.74-.72 9.42-3.49 11.04-5.01.38-.35.12-.99-.4-.99h-2.64c5.34-2.29 7.77-8.64 8.62-11.53.18-.61.98-.74 1.33-.22z" fill="#ffc008"/><path d="m53.95 34.25c-.115-.17-.279-.264-.453-.301 2.463 11.757-7.112 18.256-18.497 22.051-.833 0-3.739 2.082-4.69 4.511.37.633.673 1.288.91 1.899.31.78 1.39.8 1.76.05 1.2-2.43 3.62-5.83 8.02-6.46 4.91-.7 8.35-4.36 9.96-6.48.34-.44 1.04-.21 1.04.35v2.13c7.87-7.09 3.97-14.79 1.95-17.75z" fill="#ff9700"/><path d="m23.69 56.12c-.22-.05-.45-.09-.69-.12-.95-.13-1.84-.38-2.67-.71-.01 0-.01-.01-.01-.01-.38-.14-.75-.3-1.1-.49-1.65-.79-3.04-1.89-4.15-2.97-.85-.83-1.53-1.64-2.03-2.3-.34-.44-1.04-.21-1.04.35v2.13c-7.87-7.09-3.97-14.79-1.95-17.75.35-.52 1.15-.39 1.33.22.85 2.89 3.28 9.24 8.62 11.53h-1.06-1.58c-.52 0-.78.64-.4.99.05.04.09.09.14.13.72.66 1.8 1.52 3.24 2.35 1.4.81 3.16 1.58 5.25 2.09 1.24.3 2.45-.61 2.49-1.88l.61-17.55c.81 1.02 1.52 2.01 2.14 2.96.84 1.26 1.51 2.45 2.02 3.59h.01c.66 1.47 1.07 2.85 1.24 4.15.12.94.11 1.85-.03 2.72 0 .02-.01.04-.01.06-.19 1.19-.63 2.34-1.32 3.45-.56.9-1.28 1.78-2.17 2.63-.91.89-1.99 1.75-3.25 2.58h-.01c-.68.46-1.41.91-2.2 1.36-.37.21-.76.35-1.16.44-.08.02-.17.04-.25.05z" fill="#ffc008"/><path d="m34.07 45.55c0 .02-.01.04-.01.06-.19 1.19-.63 2.34-1.32 3.45-.2.33-.43.65-.68.97.41-.83.68-1.68.82-2.55 0-.02.01-.04.01-.06.14-.87.15-1.78.03-2.72-.17-1.3-.58-2.68-1.24-4.15h-.01c-.51-1.14-1.18-2.33-2.02-3.59-.33-.51-.69-1.02-1.07-1.55l.11-3.28c.81 1.02 1.52 2.01 2.14 2.96.84 1.26 1.51 2.45 2.02 3.59h.01c.66 1.47 1.07 2.85 1.24 4.15.12.94.11 1.85-.03 2.72z" fill="#ff9700"/><path d="m19.36 18.72 1.19-.1 4-.33 2.53-.21c.52-.05.92-.48.92-1v-5.62c-.06-.06-.13-.12-.19-.18.56-.5 1.08-.88 1.46-1.14.36-.24.6-.37.62-.38.15-.08.28-.17.4-.29.48.33 1.07.53 1.71.53 1.66 0 3-1.34 3-3s-1.34-3-3-3c-1.32 0-2.43.84-2.83 2.02-.08-.01-.16-.02-.24-.02-.32 0-.64.08-.94.24-.07.04-.6.33-1.34.86-.19.13-.4.29-.62.46-.02-.19-.03-.37-.03-.56 0-3.31 2.69-6 6-6s6 2.69 6 6c0 1.77-.77 3.37-2 4.46v5.62c0 .52.4.95.92 1l7.72.64c.35.03.7-.14.9-.43.62-.9 1.74-1.45 2.97-1.25 1.23.21 2.24 1.21 2.45 2.44.31 1.89-1.13 3.52-2.96 3.52-1.03 0-1.93-.51-2.47-1.29-.22-.33-.6-.51-1-.44-1.82.33-6.7 1.22-8.68 1.58-.49.08-.84.52-.82 1.01l.38 11.07c-.26-.47-.55-.95-.85-1.43-.63-1-1.35-2.03-2.15-3.09-.82-1.09-1.74-2.2-2.75-3.35-.24-.29-.5-.58-.77-.88l.08-2.32c.02-.49-.33-.93-.82-1.01-.54-.1-1.29-.24-2.15-.39h-.01c-1.53-.28-3.36-.62-4.8-.87-.69-.13-1.29-.24-1.72-.32-.4-.07-.78.11-1 .44-.54.78-1.44 1.29-2.47 1.29-1.83 0-3.27-1.63-2.96-3.52.21-1.23 1.22-2.23 2.45-2.44 1.23-.2 2.35.35 2.97 1.25.2.29.55.46.9.43z" fill="#ffc008"/><path d="m48 23c-.91 0-1.72-.4-2.27-1.03.14.02.29.03.44.03 1.83 0 3.27-1.63 2.96-3.52-.09-.54-.34-1.04-.71-1.45.03 0 .06 0 .09.01 1.23.21 2.24 1.21 2.45 2.44.31 1.89-1.13 3.52-2.96 3.52z" fill="#ff9700"/><path d="m35.03 23.86.38 11.07c-.26-.47-.55-.95-.85-1.43-.33-.52-.67-1.04-1.05-1.57l-.31-9.07c-.02-.49.33-.93.82-1.01 1.98-.36 6.86-1.25 8.68-1.58.4-.07.78.11 1 .44.16.23.35.44.57.61-1.99.36-6.53 1.19-8.42 1.53-.49.08-.84.52-.82 1.01z" fill="#ff9700"/><path d="m36 11.46v5.62c0 .03-.01.89 0 .92l-.92-.08c-.52-.05-.92-.48-.92-1l.01-6.46c1.23-1.09 2-2.69 2-4.46 0-1.9-.88-3.59-2.27-4.69 2.38.79 4.1 3.04 4.1 5.69 0 1.77-.77 3.37-2 4.46z" fill="#ff9700"/><g fill="#995b3f"><path d="m20.33 55.29c.36.31.79.54 1.25.7.31 1.09.56 2.58.33 4.15-1.73-.2-3.37-.95-4.64-2.23-.08-.08-.15-.16-.24-.24 1.02-.91 1.72-1.99 2.19-2.88.35.19.72.35 1.1.49 0 0 0 .01.01.01z"/><path d="m28.46 58.29c-.44.28-.9.55-1.38.82-.04.02-.07.04-.11.06-.83-1.41-2.01-2.43-3.02-3.1.4-.09.79-.23 1.16-.44.79-.45 1.52-.9 2.2-1.36h.01c1.09.29 2.66.88 4.03 2.03-.88.68-1.84 1.35-2.89 1.99z"/><path d="m35.98 51.42c-.49.76-1.06 1.5-1.71 2.22-1.23-1.04-2.63-1.63-3.7-1.95.89-.85 1.61-1.73 2.17-2.63 1.09.11 2.54.4 3.93 1.16-.2.4-.44.8-.69 1.2z"/><path d="m37.87 41.19c.36 1.72.41 3.38.15 4.98-.04.23-.08.46-.13.69-1.32-.77-2.72-1.11-3.83-1.25 0-.02.01-.04.01-.06.14-.87.15-1.78.03-2.72.87-.58 2.19-1.32 3.77-1.64z"/><path d="m35.41 34.94c.47.83.87 1.64 1.22 2.44-1.49.17-2.79.74-3.77 1.3h-.01c-.51-1.14-1.18-2.33-2.02-3.59.87-.58 2.18-1.28 3.73-1.59.3.48.59.96.85 1.43z"/><path d="m29.66 27.06c1.01 1.15 1.93 2.26 2.75 3.35-1.59.22-2.95.88-3.91 1.48-.86-1.08-1.82-2.2-2.89-3.38 1.01-.61 2.42-1.27 4.05-1.45z"/><path d="m26 22.46c.31.54.68 1.08 1.1 1.63-1.56.21-2.91.85-3.88 1.45-.91-1.32-1.58-2.64-2.03-3.95 1.44.25 3.27.59 4.8.87z"/><path d="m26.43 12.72c-.68.84-1.29 1.83-1.63 2.98-1.11-1.07-2.41-1.71-3.49-2.1.61-1.57 1.53-2.89 2.48-3.95.87.69 1.9 1.72 2.64 3.07z"/><path d="m29.27 10.14c-.73-1.34-1.76-2.35-2.62-3.04.74-.53 1.27-.82 1.34-.86.3-.16.62-.24.94-.24.08 0 .16.01.24.02.62.07 1.2.44 1.52 1.03.45.82.26 1.82-.4 2.42-.12.12-.25.21-.4.29-.02.01-.26.14-.62.38z"/></g><path d="m27.81 11.28c-.46.4-.94.89-1.38 1.44-.74-1.35-1.77-2.38-2.64-3.07.77-.86 1.55-1.55 2.24-2.09.22-.17.43-.33.62-.46.86.69 1.89 1.7 2.62 3.04-.38.26-.9.64-1.46 1.14z" fill="#9e7059"/><path d="m20.67 15.86c.13-.8.35-1.56.64-2.26 1.08.39 2.38 1.03 3.49 2.1-.08.28-.14.56-.19.85-.09.57-.12 1.15-.06 1.74l-4 .33c-.07-.93-.03-1.85.12-2.76z" fill="#9e7059"/><path d="m28.41 25.65c.16.18.32.36.48.53.27.3.53.59.77.88-1.63.18-3.04.84-4.05 1.45-.05-.05-.1-.11-.15-.16-.86-.94-1.61-1.88-2.24-2.81.97-.6 2.32-1.24 3.88-1.45.39.51.83 1.03 1.31 1.56z" fill="#9e7059"/><path d="m32.41 30.41c.8 1.06 1.52 2.09 2.15 3.09-1.55.31-2.86 1.01-3.73 1.59-.62-.95-1.33-1.94-2.14-2.96-.06-.08-.13-.16-.19-.24.96-.6 2.32-1.26 3.91-1.48z" fill="#9e7059"/><path d="m36.64 37.38c.57 1.31.98 2.58 1.23 3.81-1.58.32-2.9 1.06-3.77 1.64-.17-1.3-.58-2.68-1.24-4.15.98-.56 2.28-1.13 3.77-1.3z" fill="#9e7059"/><path d="m37.89 46.86c-.24 1.16-.65 2.28-1.21 3.36h-.01c-1.39-.76-2.84-1.05-3.93-1.16.69-1.11 1.13-2.26 1.32-3.45 1.11.14 2.51.48 3.83 1.25z" fill="#9e7059"/><path d="m34.27 53.64c-.84.91-1.81 1.8-2.92 2.66-1.37-1.15-2.94-1.74-4.03-2.03 1.26-.83 2.34-1.69 3.25-2.58 1.07.32 2.47.91 3.7 1.95z" fill="#9e7059"/><path d="m21.91 60.14c.23-1.57-.02-3.06-.33-4.15.43.14.88.21 1.34.21.26 0 .52-.02.77-.08h.01c.08-.01.17-.03.25-.05 1.01.67 2.19 1.69 3.02 3.1-1.28.7-2.68 1.04-4.06 1.04-.34 0-.67-.02-1-.07z" fill="#9e7059"/><path d="m19.22 54.79c-.47.89-1.17 1.97-2.19 2.88-1.11-1.2-2.32-3.17-1.96-5.85 1.11 1.08 2.5 2.18 4.15 2.97z" fill="#9e7059"/><path d="m31.35 56.3c-.88.68-1.84 1.35-2.89 1.99-.44.28-.9.55-1.38.82-.04.02-.07.04-.11.06-.19-.33-.4-.63-.63-.92 1.03-.63 1.97-1.28 2.83-1.95.35-.27.69-.55 1.01-.83.39.23.79.51 1.17.83z" fill="#8c4c33"/><path d="m36.67 50.22c-.2.4-.44.8-.69 1.2-.49.76-1.06 1.5-1.71 2.22-.45-.38-.91-.69-1.38-.96.33-.41.63-.83.91-1.26.25-.4.49-.8.69-1.2h.01c.13-.24.25-.49.35-.74.6.17 1.21.41 1.82.74z" fill="#8c4c33"/><path d="m38.02 46.17c-.04.23-.08.46-.13.69-.67-.39-1.36-.67-2.02-.87.19-1.33.18-2.71-.05-4.12.61-.28 1.3-.53 2.05-.68.36 1.72.41 3.38.15 4.98z" fill="#8c4c33"/><path d="m36.63 37.38c-.71.08-1.37.25-1.98.47-.06-.16-.12-.31-.19-.47h-.01c-.35-.8-.75-1.61-1.22-2.44 0-.01 0-.01 0-.01-.16-.28-.33-.57-.5-.86.55-.24 1.17-.44 1.83-.57.3.48.59.96.85 1.43v.01c.47.83.87 1.64 1.22 2.44z" fill="#8c4c33"/><path d="m32.41 30.41c-.66.09-1.27.26-1.84.47-.1-.16-.22-.31-.34-.47-.72-.96-1.52-1.94-2.4-2.94.57-.19 1.18-.34 1.83-.41 1.01 1.15 1.93 2.26 2.75 3.35z" fill="#8c4c33"/><path d="m27.1 24.09c-.65.09-1.26.25-1.82.45-.13-.15-.25-.3-.36-.45-.42-.55-.79-1.09-1.1-1.63l-.34-.46c.85.15 1.72.32 2.51.46h.01c.31.54.68 1.08 1.1 1.63z" fill="#8c4c33"/><path d="m26.43 12.72c-.68.84-1.29 1.83-1.63 2.98-.56-.54-1.18-.98-1.79-1.32.33-.79.77-1.5 1.24-2.13.32-.43.67-.84 1.01-1.19.43.48.83 1.04 1.17 1.66z" fill="#8c4c33"/><path d="m30.29 9.47c-.12.12-.25.21-.4.29-.02.01-.26.14-.62.38-.31-.57-.67-1.07-1.05-1.52.57-.65.71-1.65.29-2.49-.01-.02-.02-.05-.04-.07.15-.04.31-.06.46-.06.08 0 .16.01.24.02.62.07 1.2.44 1.52 1.03.45.82.26 1.82-.4 2.42z" fill="#8c4c33"/><path d="m29.27 10.14c-.38.26-.9.64-1.46 1.14-.46.4-.94.89-1.38 1.44-.34-.62-.74-1.18-1.17-1.66.13-.13.25-.25.37-.36.56-.54 1.08-.95 1.46-1.23.36-.26.6-.4.62-.41.15-.09.28-.19.4-.32.04-.04.08-.08.11-.12.38.45.74.95 1.05 1.52z" fill="#995b3f"/><path d="m24.61 16.55c-.09.57-.12 1.15-.06 1.74l-1.84.15c-.17-.83-.33-1.71-.28-2.05.05-.32.11-.62.19-.92.1-.38.23-.74.39-1.09.61.34 1.23.78 1.79 1.32-.08.28-.14.56-.19.85z" fill="#995b3f"/><path d="m29.66 27.06c-.65.07-1.26.22-1.83.41-.11-.14-.23-.27-.35-.41-.24-.29-.5-.58-.77-.88-.16-.17-.32-.35-.48-.53-.34-.38-.66-.75-.95-1.11.56-.2 1.17-.36 1.82-.45.39.51.83 1.03 1.31 1.56.16.18.32.36.48.53.27.3.53.59.77.88z" fill="#995b3f"/><path d="m34.56 33.5c-.66.13-1.28.33-1.83.57-.11-.19-.23-.38-.35-.57-.54-.85-1.14-1.72-1.81-2.62.57-.21 1.18-.38 1.84-.47.8 1.06 1.52 2.09 2.15 3.09z" fill="#995b3f"/><path d="m37.87 41.19c-.75.15-1.44.4-2.05.68-.04-.23-.08-.45-.13-.68-.22-1.08-.56-2.2-1.04-3.34.61-.22 1.27-.39 1.98-.47h.01c.57 1.31.98 2.58 1.23 3.81z" fill="#995b3f"/><path d="m37.89 46.86c-.24 1.16-.65 2.28-1.21 3.36h-.01c-.61-.33-1.22-.57-1.82-.74.39-.85.67-1.72.86-2.62.05-.23.09-.46.13-.69.01-.06.02-.12.03-.18.66.2 1.35.48 2.02.87z" fill="#995b3f"/><path d="m34.27 53.64c-.84.91-1.81 1.8-2.92 2.66-.38-.32-.78-.6-1.17-.83.7-.6 1.34-1.21 1.91-1.83.28-.32.55-.63.8-.96.47.27.93.58 1.38.96z" fill="#995b3f"/><path d="m15.407 18.796c-.643 0-.645 1 0 1 .644 0 .645-1 0-1z" fill="#f4e38c"/></svg>