<?xml version="1.0" encoding="UTF-8" standalone="no"?>
<!DOCTYPE svg PUBLIC "-//W3C//DTD SVG 1.1//EN" "http://www.w3.org/Graphics/SVG/1.1/DTD/svg11.dtd">
<svg width="100%" height="100%" viewBox="0 0 853 789" version="1.1" xmlns="http://www.w3.org/2000/svg" xmlns:xlink="http://www.w3.org/1999/xlink" xml:space="preserve" xmlns:serif="http://www.serif.com/" style="fill-rule:evenodd;clip-rule:evenodd;stroke-linejoin:round;stroke-miterlimit:2;">
    <g transform="matrix(1,0,0,1,-1256.88,-688.558)">
        <g transform="matrix(1.04645,0,0,0.949406,-86.6061,450.614)">
            <circle cx="1691.2" cy="693.047" r="387.817" style="fill:rgb(44,81,159);"/>
        </g>
        <g transform="matrix(1.04645,0,0,0.877895,-86.6061,472.441)">
            <circle cx="1691.2" cy="693.047" r="387.817" style="fill:rgb(92,140,238);"/>
        </g>
        <g transform="matrix(0.159851,0,0,0.147115,1683.15,1080.86)">
            <g transform="matrix(1,0,0,1,-2666.67,-2666.67)">
                <g transform="matrix(0.416667,0,0,-0.416667,0,5333.33)">
                    <path d="M6170,10116C5973,10074 5827,9989 5679,9832C5548,9692 5476,9555 5439,9375C5405,9212 5419,9015 5474,8853C5549,8634 5689,8472 5960,8291C6104,8196 6105,8195 6119,8145C6128,8111 6132,8028 6133,7880C6134,7691 6131,7658 6114,7611C6080,7516 6078,7515 5797,7515L5555,7515L5471,7588C5351,7693 5325,7705 5215,7705C5134,7705 5120,7702 5071,7675C4959,7613 4904,7503 4912,7355C4917,7250 4951,7177 5031,7098C5094,7035 5132,7020 5220,7020C5289,7020 5343,7045 5395,7100C5451,7159 5531,7208 5603,7227C5738,7262 5984,7239 6082,7181L6118,7159L6124,6537C6138,5078 6139,4558 6130,4507C6098,4340 5964,4201 5768,4133C5669,4099 5487,4090 5350,4114C5109,4156 4862,4273 4600,4471C4537,4518 4454,4587 4415,4623L4345,4688L4427,4764C4516,4847 4550,4894 4550,4932C4550,4952 4531,4969 4448,5025C4158,5221 3877,5452 3787,5570C3759,5606 3730,5635 3721,5635C3689,5635 3635,5395 3620,5181C3596,4849 3650,4497 3753,4305C3781,4252 3789,4245 3818,4242C3845,4239 3861,4247 3903,4283C3967,4337 3991,4350 4028,4350C4052,4350 4064,4339 4110,4273C4299,4002 4559,3739 4796,3580C4972,3460 5125,3392 5500,3265C5920,3123 5981,3096 6156,2975C6256,2905 6309,2843 6361,2738C6379,2700 6400,2670 6407,2670C6413,2670 6433,2697 6450,2729C6507,2836 6577,2910 6701,2993C6838,3084 6854,3092 7235,3236C7687,3408 7776,3448 7951,3556C8208,3715 8465,3957 8682,4245C8731,4311 8781,4368 8792,4372C8820,4383 8867,4359 8924,4305C8953,4277 8978,4261 8987,4264C8995,4267 9010,4270 9019,4270C9040,4270 9096,4385 9130,4495C9187,4684 9216,5044 9191,5259C9176,5386 9141,5529 9104,5610C9063,5703 9058,5703 9011,5613C8927,5453 8825,5354 8565,5183C8314,5018 8250,4969 8250,4947C8250,4934 8292,4885 8359,4818L8468,4710L8392,4639C8248,4504 8019,4345 7845,4258C7529,4099 7194,4065 6975,4170C6791,4258 6683,4443 6665,4701C6659,4788 6649,5856 6646,6665C6645,7012 6652,7110 6682,7175C6703,7221 6776,7235 7010,7235C7214,7235 7215,7235 7260,7208C7285,7194 7338,7153 7378,7117C7434,7066 7462,7049 7501,7040C7601,7016 7684,7044 7769,7132C7831,7196 7857,7247 7872,7331C7892,7447 7857,7563 7779,7641C7718,7702 7661,7724 7565,7724C7467,7724 7440,7712 7345,7620C7307,7583 7260,7545 7241,7536C7189,7509 7021,7496 6880,7508C6733,7521 6698,7535 6678,7586C6644,7672 6622,7954 6639,8088C6656,8220 6661,8227 6798,8290C6899,8338 6926,8356 6999,8425C7109,8530 7171,8613 7231,8735C7315,8909 7347,9080 7329,9268C7291,9672 7018,9994 6625,10096C6501,10128 6275,10138 6170,10116ZM6543,9685C6685,9655 6812,9567 6864,9463C6928,9334 6942,9133 6895,8995C6831,8802 6697,8670 6524,8629C6448,8611 6295,8614 6225,8634C6069,8680 5929,8790 5872,8911C5830,9001 5815,9071 5816,9180C5816,9401 5932,9568 6142,9651C6261,9698 6419,9712 6543,9685Z" style="fill:white;fill-rule:nonzero;"/>
                </g>
            </g>
        </g>
    </g>
</svg>
