<svg id="Capa_1" enable-background="new 0 0 511.463 511.463" height="512" viewBox="0 0 511.463 511.463" width="512" xmlns="http://www.w3.org/2000/svg"><g fill="#aa6a51"><path d="m243.226 334.619-22.609 52.005-18.443 42.424-11.921 27.421-2.822 18.355-5.116 11.767c-5.326 12.251-19.575 17.865-31.826 12.539s-17.865-19.575-12.539-31.826l5.116-11.767 11.498-14.583 11.884-27.337 18.423-42.377 22.665-52.135 5.809-16.436 32.532 15.329z"/><path d="m80.94 304.243-27.721 10.922-18.442 2.182-11.938 4.703c-12.429 4.896-18.535 18.941-13.638 31.37 4.897 12.429 18.942 18.535 31.37 13.638l11.938-4.703 14.974-10.984 27.838-10.968 43.025-16.951 52.755-20.784 13.141-6.092-13.99-37.183-13.416 7.069-52.901 20.842z"/><path d="m97.84 166.441-27.337-11.884-14.583-11.498-11.767-5.116c-12.251-5.326-26.5.288-31.826 12.539-5.326 12.251.288 26.5 12.539 31.826l11.767 5.116 18.355 2.822 27.421 11.921 42.424 18.443 52.005 22.609 14.072 2.652 13.334-34.272-11.89-4.069-52.135-22.665z"/><path d="m207.213 80.932-10.921-27.721-2.182-18.442-4.703-11.938c-4.897-12.429-18.942-18.535-31.371-13.638-12.429 4.897-18.535 18.942-13.638 31.37l4.703 11.938 10.984 14.974 10.968 27.838 16.951 43.025 20.784 52.755 6.908 16.436 37.721-11.333-8.422-19.368-20.842-52.901z"/><path d="m326.591 140.21-22.665 52.135-4.823 16.436-38.341-16.436 7.476-15.515 22.609-52.005 18.443-42.424 11.921-27.421 2.822-18.355 5.116-11.767c5.326-12.251 19.575-17.865 31.826-12.539s17.865 19.575 12.539 31.826l-5.116 11.767-11.498 14.583-11.884 27.337z"/><path d="m416.142 171.045 27.838-10.968 14.974-10.984 11.938-4.703c12.429-4.897 26.474 1.209 31.37 13.638 4.897 12.429-1.209 26.474-13.638 31.371l-11.938 4.703-18.442 2.182-27.721 10.922-42.996 16.94-52.901 20.842-16.483 6.867-9.918-37.268 12.136-5.806 52.755-20.784z"/><path d="m334.626 268.23 52.005 22.609 42.423 18.443 27.421 11.921 18.355 2.822 11.767 5.116c12.251 5.326 17.865 19.575 12.539 31.826-5.326 12.251-19.575 17.865-31.826 12.539l-11.767-5.116-14.583-11.498-27.337-11.884-42.377-18.423-52.135-22.665-16.436-7.343 15.468-30.114z"/><path d="m266.469 334.619 20.842 52.901 16.94 42.996 10.921 27.721 2.182 18.442 4.703 11.938c4.897 12.429 18.942 18.535 31.371 13.638 12.429-4.896 18.535-18.941 13.638-31.37l-4.703-11.938-10.984-14.974-10.968-27.838-16.951-43.024-20.784-52.755-7.397-17.686-36.862 13.049z"/></g><path d="m255.732 74.359c-100.165 0-181.365 81.2-181.365 181.365s81.2 181.365 181.365 181.365 181.365-81.2 181.365-181.365-81.2-181.365-181.365-181.365zm0 316.869c-74.837 0-135.504-60.667-135.504-135.504s60.667-135.504 135.504-135.504 135.504 60.667 135.504 135.504-60.668 135.504-135.504 135.504z" fill="#ea9b58"/><circle cx="255.732" cy="255.724" fill="#f6a96c" r="77.339"/><circle cx="255.732" cy="255.724" fill="#ea9b58" r="48.48"/><path d="m251.23 242.13c0-13.232 5.307-25.219 13.901-33.967-3.042-.598-6.182-.919-9.399-.919-26.775 0-48.48 21.705-48.48 48.48s21.705 48.48 48.48 48.48c13.543 0 25.783-5.559 34.579-14.513-22.275-4.377-39.081-24.003-39.081-47.561z" fill="#dc8758"/><path d="m255.732 398.728c78.853 0 143.004-64.151 143.004-143.004s-64.152-143.004-143.004-143.004-143.004 64.151-143.004 143.004 64.151 143.004 143.004 143.004zm-112.343-204.306 39.823 17.313c-4.12 6.767-7.304 14.158-9.409 21.987l-39.882-17.338c2.48-7.66 5.658-15.007 9.468-21.962zm69.981-12.157-15.947-40.476c7.049-3.622 14.479-6.602 22.207-8.877l15.924 40.417c-7.883 1.931-15.332 4.97-22.184 8.936zm42.362 3.62c38.509 0 69.839 31.33 69.839 69.839s-31.33 69.839-69.839 69.839c-38.51 0-69.839-31.33-69.839-69.839s31.329-69.839 69.839-69.839zm61.302-42.504-17.313 39.824c-6.766-4.12-14.158-7.304-21.987-9.409l17.338-39.882c7.66 2.479 15.007 5.657 21.962 9.467zm61.51 76.242-40.418 15.924c-1.931-7.884-4.969-15.333-8.936-22.184l40.476-15.947c3.623 7.049 6.603 14.479 8.878 22.207zm-10.47 97.404-39.823-17.313c4.12-6.767 7.304-14.158 9.409-21.987l39.882 17.338c-2.479 7.659-5.657 15.006-9.468 21.962zm-76.242 61.51-15.924-40.418c7.884-1.931 15.333-4.969 22.185-8.937l15.947 40.477c-7.049 3.622-14.479 6.602-22.208 8.878zm-97.403-10.471 17.313-39.823c6.766 4.12 14.157 7.304 21.987 9.409l-17.338 39.882c-7.66-2.479-15.007-5.657-21.962-9.468zm-61.51-76.241 40.417-15.923c1.931 7.884 4.97 15.333 8.937 22.185l-40.476 15.947c-3.622-7.051-6.602-14.481-8.878-22.209zm38.269-42.885c-.178 2.241-.296 4.498-.296 6.784 0 1.665.061 3.316.156 4.957l-41.535 16.364c-1.168-6.937-1.786-14.058-1.786-21.321 0-8.427.827-16.663 2.389-24.639zm-21.659 78.167 41.658-16.413c2.537 2.974 5.269 5.773 8.188 8.373l-17.798 40.938c-12.549-8.95-23.422-20.106-32.048-32.898zm81.563 54.232 17.855-41.072c2.241.178 4.498.296 6.784.296 1.665 0 3.315-.061 4.957-.156l16.364 41.536c-6.937 1.168-14.057 1.786-21.321 1.786-8.426-.001-16.662-.828-24.639-2.39zm96.023-19.413-16.412-41.659c2.974-2.537 5.773-5.269 8.372-8.187l40.938 17.798c-8.95 12.55-20.106 23.423-32.898 32.048zm54.232-81.563-41.072-17.855c.178-2.24.296-4.498.296-6.784 0-1.665-.061-3.315-.156-4.957l41.536-16.364c1.168 6.937 1.786 14.057 1.786 21.321-.001 8.427-.829 16.663-2.39 24.639zm-19.413-96.022-41.659 16.413c-2.537-2.974-5.27-5.773-8.188-8.373l17.798-40.938c12.551 8.95 23.424 20.106 32.049 32.898zm-81.563-54.232-17.855 41.072c-2.24-.178-4.498-.295-6.784-.295-1.665 0-3.315.061-4.957.156l-16.364-41.536c6.936-1.168 14.057-1.785 21.321-1.785 8.426-.001 16.662.826 24.639 2.388zm-96.023 19.413 16.413 41.658c-2.974 2.537-5.773 5.269-8.372 8.187l-40.939-17.797c8.951-12.55 20.107-23.423 32.898-32.048z"/><path d="m255.732 311.705c30.868 0 55.98-25.112 55.98-55.98 0-11.6-3.53-22.739-10.21-32.214-2.387-3.385-7.064-4.194-10.451-1.809-3.386 2.387-4.195 7.065-1.809 10.451 4.887 6.932 7.47 15.083 7.47 23.571 0 22.597-18.384 40.98-40.98 40.98s-40.98-18.384-40.98-40.98 18.383-40.98 40.98-40.98c5.074 0 10.045.928 14.774 2.758 3.863 1.494 8.207-.427 9.701-4.289s-.426-8.206-4.289-9.701c-6.462-2.5-13.253-3.768-20.187-3.768-30.868 0-55.98 25.112-55.98 55.98s25.113 55.981 55.981 55.981z"/><path d="m477.567 201.55c.641-.076 1.269-.234 1.868-.47l11.938-4.703c7.875-3.103 14.071-9.087 17.445-16.85 3.375-7.762 3.524-16.374.422-24.249-6.405-16.257-24.842-24.272-41.098-17.867l-11.938 4.703c-.6.237-1.167.55-1.688.932l-14.19 10.409-20.857 8.218c-15.754-27.32-38.151-50.342-64.964-66.861l8.884-20.436 10.896-13.82c.399-.506.731-1.062.988-1.653l5.116-11.768c6.967-16.023-.402-34.728-16.427-41.694-7.763-3.374-16.374-3.523-24.249-.422-7.875 3.103-14.07 9.086-17.445 16.849l-5.115 11.768c-.257.592-.437 1.213-.535 1.851l-2.675 17.395-8.919 20.518c-15.722-4.255-32.245-6.539-49.293-6.539-15.132 0-29.85 1.8-43.963 5.178l-8.144-20.671-2.067-17.477c-.076-.641-.234-1.269-.47-1.868l-4.703-11.938c-6.405-16.257-24.841-24.276-41.098-17.867-16.256 6.402-24.271 24.838-17.866 41.095l4.704 11.938c.236.6.549 1.167.931 1.687l10.409 14.191 8.218 20.857c-27.319 15.753-50.342 38.151-66.861 64.963l-20.436-8.884-13.821-10.896c-.506-.399-1.062-.731-1.653-.988l-11.768-5.116c-7.762-3.375-16.374-3.523-24.249-.422-7.875 3.103-14.07 9.086-17.445 16.849s-3.525 16.374-.422 24.249 9.086 14.07 16.848 17.444l11.768 5.116c.591.257 1.213.437 1.851.535l17.395 2.675 20.518 8.919c-4.255 15.722-6.539 32.245-6.539 49.293 0 14.904 1.777 29.651 5.201 43.954l-20.694 8.153-17.477 2.067c-.641.076-1.268.233-1.868.47l-11.938 4.704c-7.875 3.102-14.071 9.086-17.445 16.849s-3.524 16.374-.421 24.249c4.907 12.456 16.877 20.073 29.52 20.073 3.857 0 7.777-.709 11.578-2.206l11.938-4.703c.6-.237 1.167-.55 1.687-.931l14.191-10.41 20.832-8.208c5.818 10.132 12.587 19.762 20.274 28.735 2.695 3.147 7.429 3.512 10.575.817s3.512-7.43.817-10.575c-26.935-31.445-41.769-71.59-41.769-113.038 0-95.869 77.996-173.865 173.865-173.865s173.865 77.996 173.865 173.865-77.996 173.865-173.865 173.865c-41.507 0-81.694-14.87-113.159-41.87-3.143-2.699-7.878-2.336-10.576.808-2.697 3.144-2.336 7.878.808 10.575 7.604 6.525 15.679 12.394 24.133 17.582l-8.864 20.387-10.896 13.82c-.399.506-.731 1.062-.988 1.653l-5.117 11.768c-6.966 16.024.403 34.729 16.427 41.694 4.053 1.762 8.336 2.645 12.626 2.645 3.927 0 7.86-.74 11.623-2.223 7.875-3.103 14.07-9.086 17.445-16.849l5.116-11.768c.257-.592.437-1.213.535-1.851l2.674-17.395 8.925-20.53c15.956 4.314 32.523 6.552 49.289 6.552 15.132 0 29.85-1.8 43.963-5.178l8.144 20.671 2.067 17.477c.076.641.234 1.269.47 1.868l4.703 11.938c3.103 7.875 9.087 14.071 16.85 17.445 4.053 1.763 8.336 2.646 12.626 2.646 3.927-.001 7.859-.74 11.623-2.224 16.257-6.404 24.271-24.841 17.867-41.098l-4.703-11.938c-.237-.6-.55-1.167-.932-1.688l-10.413-14.186-8.218-20.857c27.32-15.753 50.342-38.151 66.861-64.964l20.436 8.884 13.82 10.896c.506.399 1.062.731 1.653.988l11.768 5.116c4.102 1.783 8.378 2.627 12.589 2.627 12.24 0 23.922-7.131 29.105-19.054 3.375-7.763 3.524-16.374.422-24.249s-9.087-14.07-16.849-17.444l-11.768-5.116c-.591-.257-1.213-.437-1.851-.535l-17.395-2.675-20.518-8.919c4.255-15.722 6.539-32.245 6.539-49.293 0-15.132-1.8-29.85-5.178-43.962l20.671-8.144zm-449.712-26.121c-4.087-1.777-7.238-5.04-8.873-9.187-1.634-4.147-1.555-8.683.222-12.771s5.04-7.239 9.188-8.873 8.683-1.555 12.77.222l10.877 4.729 9.282 7.318-10.906 25.086-11.683-1.796zm37.001 10.929 9.535-21.933 13.032 5.665c-3.612 7.071-6.785 14.401-9.496 21.95zm-15.999 169.375-11.035 4.348c-8.561 3.372-18.271-.85-21.643-9.409-1.634-4.147-1.555-8.683.222-12.771s5.04-7.239 9.187-8.872l11.035-4.348 11.738-1.388 10.027 25.45zm22.856-14.089-8.767-22.251 13.209-5.204c2.47 7.586 5.412 15.013 8.821 22.229zm89.072-325.474c8.562-3.37 18.27.849 21.644 9.41l4.347 11.035 1.388 11.737-25.451 10.028-6.99-9.53-4.348-11.035c-3.372-8.562.849-18.272 9.41-21.645zm9.027 55.534 22.25-8.766 5.199 13.197c-7.629 2.49-15.047 5.45-22.217 8.852zm166.214-43.856c1.777-4.088 5.04-7.239 9.188-8.873s8.684-1.555 12.771.222c4.088 1.777 7.239 5.04 8.873 9.188s1.556 8.683-.222 12.771l-4.729 10.877-7.318 9.281-25.086-10.906 1.796-11.682zm-10.928 37 21.933 9.535-5.665 13.032c-7.071-3.612-14.401-6.785-21.95-9.496zm-149.661 418.752c-1.777 4.088-5.04 7.239-9.188 8.873-4.146 1.635-8.682 1.557-12.77-.222-8.438-3.669-12.32-13.52-8.651-21.958l4.729-10.877 7.318-9.281 25.086 10.906-1.796 11.682zm10.928-37-21.932-9.535 5.66-13.018c7.117 3.62 14.453 6.781 21.961 9.469zm164.314 48.678c-4.147 1.634-8.684 1.555-12.771-.223-4.089-1.777-7.239-5.04-8.873-9.188l-4.348-11.035-1.388-11.737 25.45-10.027 6.991 9.531 4.348 11.034c3.373 8.562-.848 18.272-9.409 21.645zm-9.027-55.534-22.251 8.767-5.199-13.197c7.629-2.49 15.047-5.45 22.218-8.853zm120.955-284.029 11.034-4.348c8.563-3.372 18.271.849 21.645 9.409 1.634 4.147 1.555 8.683-.223 12.771-1.777 4.089-5.04 7.239-9.188 8.873l-11.035 4.348-11.737 1.388-10.027-25.45zm21.001 180.304c4.088 1.777 7.239 5.04 8.873 9.187s1.556 8.683-.222 12.771-5.04 7.239-9.188 8.873c-4.146 1.635-8.682 1.557-12.771-.222l-10.877-4.729-9.281-7.318 10.906-25.086 11.682 1.796zm-37-10.929-9.535 21.933-13.032-5.665c3.612-7.071 6.785-14.401 9.496-21.95zm-20.139-150.053 13.282-5.233 8.767 22.251-13.197 5.2c-2.49-7.63-5.45-15.047-8.852-22.218z"/><path d="m265.585 96.832c0-5.718-4.635-10.354-10.354-10.354-5.718 0-10.354 4.635-10.354 10.354 0 5.718 4.635 10.354 10.354 10.354s10.354-4.636 10.354-10.354z"/><path d="m375.76 150.631c4.043-4.043 4.043-10.599 0-14.642s-10.599-4.043-14.642 0-4.043 10.599 0 14.642 10.598 4.043 14.642 0z"/><path d="m425.977 256.224c0-5.718-4.635-10.354-10.354-10.354-5.718 0-10.354 4.635-10.354 10.354s4.635 10.354 10.354 10.354 10.354-4.636 10.354-10.354z"/><circle cx="369.146" cy="369.431" r="10.354"/><path d="m245.878 416.616c0 5.718 4.635 10.354 10.354 10.354 5.718 0 10.354-4.635 10.354-10.354 0-5.718-4.635-10.354-10.354-10.354-5.718 0-10.354 4.636-10.354 10.354z"/><path d="m135.704 362.817c-4.043 4.043-4.043 10.599 0 14.642s10.599 4.043 14.642 0 4.043-10.599 0-14.642-10.599-4.043-14.642 0z"/><path d="m85.486 257.224c0 5.718 4.635 10.354 10.354 10.354 5.718 0 10.354-4.635 10.354-10.354s-4.635-10.354-10.354-10.354c-5.718.001-10.354 4.636-10.354 10.354z"/><path d="m149.639 151.338c4.043-4.043 4.043-10.599 0-14.642s-10.599-4.043-14.642 0-4.043 10.599 0 14.642c4.043 4.044 10.598 4.044 14.642 0z"/></svg>