<svg height="511pt" viewBox="-59 1 511 511.99933" width="511pt" xmlns="http://www.w3.org/2000/svg"><path d="m328.226562 365.988281c-4.488281-8.8125-10.300781-17.1875-15.863281-24.382812-1.394531-1.804688-2.820312-3.589844-4.253906-5.367188-13.269531-16.324219-31.203125-28.65625-53.023437-27.625l15.40625 89.476563.804687 4.632812 14.269531 12.722656c10.59375 9.449219 26.328125 10.96875 38.15625 3.121094 6.582032-4.363281 11.339844-11.082031 12.308594-20.070312 1.140625-10.628906-2.371094-21.898438-7.804688-32.507813zm0 0" fill="#fed2a4"/><path d="m87.152344 336.238281c-1.441406 1.773438-2.859375 3.5625-4.257813 5.367188-5.558593 7.195312-11.371093 15.574219-15.859375 24.382812-5.4375 10.609375-8.949218 21.878907-7.804687 32.507813.964843 8.988281 5.722656 15.703125 12.304687 20.070312 11.828125 7.847656 27.566406 6.328125 38.160156-3.121094l14.269532-12.722656.800781-4.632812 15.40625-89.476563c-21.816406-1.03125-39.75 11.300781-53.019531 27.625zm0 0" fill="#fed2a4"/><path d="m93.535156 418.566406c-6.578125-4.367187-11.339844-11.082031-12.304687-20.070312-1.144531-10.628906 2.367187-21.898438 7.804687-32.507813 4.488282-8.8125 10.300782-17.1875 15.859375-24.382812 1.398438-1.804688 2.816407-3.59375 4.257813-5.367188 8.339844-10.261719 18.519531-18.9375 30.347656-23.71875l.671875-3.90625c-21.820313-1.03125-39.75 11.300781-53.019531 27.625-1.441406 1.773438-2.859375 3.5625-4.257813 5.367188-5.558593 7.195312-11.371093 15.574219-15.859375 24.382812-5.4375 10.609375-8.949218 21.878907-7.804687 32.507813.964843 8.988281 5.722656 15.703125 12.304687 20.070312 8.417969 5.582032 18.808594 6.402344 27.921875 3.015625-2.046875-.78125-4.035156-1.765625-5.921875-3.015625zm0 0" fill="#ffbd86"/><path d="m284.488281 451.648438c-.308593-18.234376-1.257812-34.285157-2.648437-48.382813l-84.214844-13.722656-84.203125 13.722656c-1.394531 14.132813-2.34375 30.246094-2.648437 48.542969l-.003907.304687 26.007813 15.152344 26.269531-15.152344v-8.332031c0-5.464844 4.421875-9.894531 9.886719-9.894531h49.382812c5.464844 0 9.894532 4.429687 9.894532 9.894531v8.332031l26.433593 15.152344 25.84375-15.152344zm0 0" fill="#3d4851"/><path d="m224.644531 308.617188 18.332031 47.320312-18.332031 47.324219h-54.027343l-17.367188-47.324219 17.367188-47.320312zm0 0" fill="#ebebeb"/><path d="m113.445312 403.261719-.023437.003906c-.855469 8.664063-1.539063 18.078125-2.015625 28.277344-.296875 6.4375-.515625 13.183593-.632812 20.265625l-.003907.304687 21.390625 12.460938c1.632813-3.890625 2.539063-8.066407 2.605469-12.339844.003906-.039063.003906-.082031.003906-.121094l.003907-.304687c.304687-18.296875 1.253906-34.410156 2.648437-48.542969l.023437-.003906h-.019531c.128907-1.34375.265625-2.667969.402344-3.972657zm0 0" fill="#333a41"/><path d="m110.769531 452.113281c-.066406 4.082031-.105469 8.257813-.105469 12.558594 0 0-11.503906 9.496094-16.308593 25.679687-2.09375 7.054688 3.152343 14.152344 10.511719 14.152344h47.203124c6.0625 0 10.976563-4.914062 10.976563-10.976562v-41.414063zm0 0" fill="#e3986d"/><path d="m284.488281 452.113281c.066407 4.082031.105469 8.257813.105469 12.558594 0 0 11.503906 9.496094 16.308594 25.679687 2.09375 7.054688-3.152344 14.152344-10.511719 14.152344h-47.203125c-6.0625 0-10.976562-4.914062-10.976562-10.976562v-41.414063zm0 0" fill="#e3986d"/><path d="m254.210938 493.523438v-41.414063h-22v41.414063c0 6.0625 4.914062 10.976562 10.976562 10.976562h22c-6.0625 0-10.976562-4.914062-10.976562-10.976562zm0 0" fill="#d97c40"/><path d="m170.617188 308.617188v94.644531h-57.191407c.980469-10.121094 2.1875-19.246094 3.558594-27.4375 8.664063-52.339844 23.191406-67.207031 23.191406-67.207031zm0 0" fill="#e3986d"/><path d="m137.425781 403.261719c.980469-10.121094 2.1875-19.25 3.558594-27.4375 8.664063-52.335938 23.191406-67.203125 23.191406-67.207031h-24s-11.121093 11.382812-19.707031 49.289062c-3.328125 14.703125-5.566406 30.164062-7.042969 45.355469zm0 0" fill="#d97c40"/><path d="m281.835938 403.261719h-57.191407v-94.644531h30.4375s14.53125 14.867187 23.195313 67.207031c1.371094 8.1875 2.574218 17.316406 3.558594 27.4375zm0 0" fill="#e3986d"/><path d="m83.367188 203.179688c0 18.035156-14.621094 32.65625-32.65625 32.65625-18.035157 0-32.65625-14.621094-32.65625-32.65625 0-18.035157 14.621093-32.65625 32.65625-32.65625 18.035156 0 32.65625 14.621093 32.65625 32.65625zm0 0" fill="#ffbd86"/><path d="m377.207031 203.179688c0 18.035156-14.621093 32.65625-32.65625 32.65625-18.035156 0-32.65625-14.621094-32.65625-32.65625 0-18.035157 14.621094-32.65625 32.65625-32.65625 18.035157 0 32.65625 14.621093 32.65625 32.65625zm0 0" fill="#ffbd86"/><path d="m50.710938 153.976562c-.726563 5.957032-1.109376 12.019532-1.109376 18.175782 0 81.753906 66.273438 148.03125 148.027344 148.03125 81.757813 0 148.03125-66.277344 148.03125-148.03125 0-6.15625-.378906-12.21875-1.109375-18.175782l-147.390625-18.367187zm0 0" fill="#ff889e"/><path d="m197.160156 135.609375-146.449218 18.367187c-.730469 5.957032-1.113282 12.019532-1.113282 18.171876 0 .613281.015625 1.21875.023438 1.828124h296.015625c.007812-.609374.023437-1.214843.023437-1.828124 0-6.152344-.382812-12.214844-1.113281-18.171876zm0 0" fill="#fd5f7e"/><path d="m84.820312 153.976562c-.785156 4.890626-1.269531 9.878907-1.410156 14.957032-1.167968 42.285156 20.773438 79.644531 54.09375 100.34375 10.957032 6.804687 24.742188 6.949218 36.042969.742187 7.542969-4.140625 16.648437-8.0625 24.085937-8.0625s16.539063 3.921875 24.078126 8.0625c11.484374 6.304688 25.4375 5.925781 36.527343-1.042969 32.207031-20.230468 53.65625-56.070312 53.65625-96.828124 0-6.183594-.5-12.253907-1.453125-18.171876l-113.28125-18.367187zm0 0" fill="#fed2a4"/><path d="m271.464844 222.890625h-17.265625c-4.140625 0-7.5-3.359375-7.5-7.5 0-4.144531 3.359375-7.5 7.5-7.5h17.265625c4.144531 0 7.5 3.355469 7.5 7.5 0 4.140625-3.355469 7.5-7.5 7.5zm0 0" fill="#ff889e"/><path d="m141.0625 222.890625h-17.265625c-4.144531 0-7.5-3.359375-7.5-7.5 0-4.144531 3.355469-7.5 7.5-7.5h17.265625c4.140625 0 7.5 3.355469 7.5 7.5 0 4.140625-3.359375 7.5-7.5 7.5zm0 0" fill="#ff889e"/><path d="m311.894531 172.148438c0-6.183594-.5-12.25-1.453125-18.171876l-113.28125-18.367187-112.339844 18.367187c-.785156 4.890626-1.269531 9.878907-1.410156 14.957032-.046875 1.691406-.042968 3.371094-.015625 5.042968h228.46875c.011719-.609374.03125-1.214843.03125-1.828124zm0 0" fill="#ffbd86"/><path d="m372.949219 80.984375c-16.339844-4.050781-41.738281-14.429687-64.679688-40.996094-37.652343-43.59375-81.601562-37.652343-110.15625-15.191406-28.554687-22.460937-73.472656-28.402344-111.121093 15.191406-22.945313 26.566407-48.339844 36.945313-64.683594 40.996094-10.476563 2.597656-16.640625 13.378906-13.542969 23.722656 11.0625 36.945313 41.945313 49.269531 41.945313 49.269531h293.835937s30.882813-12.324218 41.945313-49.269531c3.097656-10.34375-3.066407-21.125-13.542969-23.722656zm0 0" fill="#3d4851"/><path d="m42.765625 104.707031c-2.039063-6.8125-.058594-22.488281 4.519531-33.140625-9.375 4.800782-18 7.6875-24.976562 9.417969-10.476563 2.597656-16.640625 13.378906-13.542969 23.722656 11.0625 36.941407 41.945313 49.269531 41.945313 49.269531h34s-30.882813-12.328124-41.945313-49.269531zm0 0" fill="#333a41"/><path d="m218.648438 83.417969 10.277343-10.277344c2.609375-2.609375 2.609375-6.84375 0-9.453125l-11.566406-11.566406c-2.609375-2.609375-6.84375-2.609375-9.453125 0l-10.277344 10.277344-10.277344-10.277344c-2.609374-2.609375-6.839843-2.609375-9.453124 0l-11.5625 11.566406c-2.609376 2.609375-2.609376 6.84375 0 9.453125l10.277343 10.277344-10.277343 10.277343c-2.609376 2.609376-2.609376 6.839844 0 9.453126l11.5625 11.5625c2.613281 2.609374 6.84375 2.609374 9.453124 0l10.277344-10.277344 10.277344 10.277344c2.609375 2.609374 6.84375 2.609374 9.453125 0l11.566406-11.5625c2.609375-2.613282 2.609375-6.84375 0-9.453126zm0 0" fill="#ebebeb"/><path d="m93.925781 492.984375c-.203125 5.96875 4.675781 11.515625 10.941407 11.515625h24c-7.359376 0-12.605469-7.097656-10.511719-14.152344 2.292969-7.714844 6.109375-13.914062 9.472656-18.285156 4.386719-5.699219 6.824219-12.640625 6.941406-19.828125 0-.042969 0-.082031 0-.125h-24c-.066406 4.082031-.105469 8.257813-.105469 12.5625 0 0-2.347656 1.941406-5.363281 5.558594-3.664062 4.386719-8.308593 11.246093-10.945312 20.117187-.257813.878906-.398438 1.761719-.429688 2.636719zm0 0" fill="#d97c40"/><path d="m262.832031 204.253906c4.140625 0 7.5-3.355468 7.5-7.5v-12.679687c0-4.140625-3.359375-7.5-7.5-7.5-4.144531 0-7.5 3.359375-7.5 7.5v12.679687c0 4.140625 3.355469 7.5 7.5 7.5zm0 0"/><path d="m132.429688 204.253906c4.140624 0 7.5-3.355468 7.5-7.5v-12.679687c0-4.140625-3.359376-7.5-7.5-7.5-4.144532 0-7.5 3.359375-7.5 7.5v12.679687c0 4.140625 3.355468 7.5 7.5 7.5zm0 0"/><path d="m197.628906 222.171875c6.710938 0 13.019532-2.816406 17.3125-7.722656 2.722656-3.121094 2.40625-7.859375-.710937-10.585938-3.121094-2.726562-7.859375-2.40625-10.585938.710938-1.441406 1.648437-3.632812 2.597656-6.015625 2.597656-2.378906 0-4.570312-.949219-6.015625-2.597656-2.722656-3.117188-7.460937-3.4375-10.582031-.710938-3.117188 2.726563-3.4375 7.464844-.710938 10.585938 4.292969 4.90625 10.601563 7.722656 17.308594 7.722656zm0 0"/><path d="m238.292969 68.410156c0-3.660156-1.355469-7.320312-4.0625-10.027344 0 0-11.554688-11.554687-11.566407-11.566406-5.472656-5.472656-14.585937-5.46875-20.058593 0l-4.976563 4.976563s-4.96875-4.96875-4.972656-4.976563c-5.472656-5.46875-14.59375-5.464844-20.0625 0 0 0-11.546875 11.550782-11.5625 11.566406-5.46875 5.46875-5.460938 14.597657 0 20.058594l4.972656 4.972656-4.972656 4.976563c-5.53125 5.527344-5.53125 14.527344 0 20.058594 0 0 11.546875 11.546875 11.5625 11.566406 5.453125 5.449219 14.625 5.433594 20.0625 0l4.972656-4.976563s4.964844 4.96875 4.976563 4.976563c5.472656 5.472656 14.601562 5.457031 20.058593 0l11.566407-11.566406c5.527343-5.527344 5.527343-14.527344 0-20.058594l-4.976563-4.972656s4.964844-4.96875 4.976563-4.976563c2.707031-2.710937 4.0625-6.371094 4.0625-10.03125zm-24.949219 20.308594 9.699219 9.699219-10.410157 10.414062s-9.691406-9.695312-9.699218-9.699219c-2.8125-2.8125-7.664063-2.945312-10.605469 0l-9.703125 9.699219-10.410156-10.410156 9.703125-9.703125c2.925781-2.929688 2.925781-7.675781 0-10.605469l-9.703125-9.699219 10.410156-10.414062s9.699219 9.699219 9.703125 9.699219c2.808594 2.8125 7.65625 2.949219 10.605469 0l9.699218-9.699219 10.410157 10.410156-9.699219 9.703125c-2.929688 2.925781-2.929688 7.675781 0 10.605469zm0 0"/><path d="m24.117188 88.261719c14.3125-3.550781 35.769531-11.832031 56.707031-31.128907 3.046875-2.804687 3.238281-7.550781.433593-10.597656-2.808593-3.046875-7.550781-3.238281-10.597656-.433594-18.605468 17.144532-37.542968 24.472657-50.15625 27.601563-14.421875 3.578125-23.1875 18.902344-18.921875 33.152344 9.25 30.898437 31.066407 46.011719 41.132813 51.535156-.164063 1.835937-.285156 3.675781-.382813 5.519531-18.292969 3.828125-31.777343 19.898438-31.777343 39.269532 0 22.140624 18.015624 40.15625 40.15625 40.15625 2.785156 0 5.53125-.292969 8.222656-.859376 13.097656 25.726563 33.144531 47.34375 57.648437 62.367188-12.75 4.695312-24.699219 13.683594-35.25 26.664062-15.046875 18.511719-32.269531 42.554688-29.558593 67.789063 1.96875 18.351563 18.445312 31.808594 36.601562 31.808594 5.449219 0 10.785156-1.128907 15.710938-3.273438-.402344 7.710938-.675782 15.679688-.8125 23.875 0 0-.003907.277344-.003907.28125-.054687 3.234375-.085937 6.347657-.097656 9.4375-4.179687 4.21875-12.066406 13.511719-16.007813 26.789063-3.46875 11.679687 5.527344 23.785156 17.703126 23.785156h47.203124c10.1875 0 18.476563-8.289062 18.476563-18.476562v-49.746094c0-1.320313 1.070313-2.394532 2.382813-2.394532h49.386718c1.320313 0 2.394532 1.074219 2.394532 2.394532l-.003907 49.746094c0 10.1875 8.289063 18.476562 18.476563 18.476562h47.207031c12.1875 0 21.160156-12.140625 17.699219-23.785156-3.9375-13.277344-11.828125-22.570313-16.003906-26.789063-.015626-3.070312-.097657-9.863281-.101563-9.902343-.136719-8.125-.410156-16.027344-.808594-23.691407 4.921875 2.144531 10.261719 3.273438 15.710938 3.273438 18.246093.003906 34.625-13.414063 36.601562-31.8125 2.714844-25.253907-14.488281-49.242188-29.5625-67.789063-10.519531-12.941406-22.4375-21.917968-35.148437-26.621094 10.308594-6.328124 19.953125-13.898437 28.726562-22.660156 2.933594-2.925781 2.9375-7.671875.011719-10.605468-2.925781-2.929688-7.675781-2.933594-10.609375-.007813-19.75 19.71875-45.609375 33.46875-73.210938 38.644531-20.152343 3.78125-41.175781 3.125-61.035156-1.980468-.0625-.015626-.121094-.03125-.183594-.046876-58.277343-15.0625-102.011718-66.671874-105.191406-128.8125-.300781-5.976562-.234375-11.972656.21875-17.941406h18.839844c-.210938 2.421875-.363281 4.84375-.429688 7.25-1.191406 43.128906 20.890626 84.097656 57.628907 106.925782 13.15625 8.171874 30.09375 8.367187 43.613281.945312 8.382812-4.601562 15.652344-7.136719 20.472656-7.136719 4.820313 0 12.089844 2.535157 20.46875 7.132813 13.730469 7.539062 30.867188 7.066406 44.128906-1.265625 35.796876-22.484375 57.167969-61.054688 57.167969-103.175781 0-3.550782-.175781-7.117188-.488281-10.671876h18.851562c2.121094.097657-1.023437 30.96875-1.496093 33.820313-3.222657 19.386719-10.578125 38.046875-21.441407 54.421875-2.289062 3.449219-1.347656 8.105469 2.105469 10.394531 3.449219 2.289063 8.105469 1.347657 10.394531-2.101562 3.328126-5.019531 6.335938-10.207031 9.039063-15.527344 2.683594.558594 5.417969.851563 8.1875.851563 22.144531 0 40.15625-18.015626 40.15625-40.15625 0-19.371094-13.484375-35.441407-31.777344-39.269532-.09375-1.84375-.21875-3.683594-.378906-5.519531 10.0625-5.523437 31.878906-20.632813 41.132813-51.535156 4.269531-14.261719-4.527344-29.578125-18.925782-33.152344-15.941406-3.953125-39.429687-13.863281-60.808594-38.621094-39.957031-46.265625-86.214843-40.015625-115.832031-19.601562-14.453125-9.976563-31.226562-15.4375002-47.800781-15.480469-21.421875-.0625-42.132812 8.804688-59.953125 25.617188-3.015625 2.84375-3.152344 7.589843-.3125 10.601562 2.84375 3.015625 7.589844 3.152344 10.601563.3125 33.609374-31.703125 69.988281-23.804688 92.828124-5.839844 2.71875 2.136719 6.550782 2.136719 9.269532 0 25.214844-19.832031 64.683594-26.515625 99.84375 14.195313 23.957031 27.738281 50.5 38.898437 68.550781 43.375 6.234375 1.546875 10.011719 8.125 8.167969 14.292969-8.761719 29.261718-30.894532 41.335937-36.347656 43.917968h-290.652344c-5.378906-2.574218-27.632813-14.78125-36.359375-43.917968-1.835938-6.148438 1.972656-12.753907 8.167969-14.292969zm127.347656 232.425781c3.84375 1.1875 7.730468 2.246094 11.652344 3.140625v71.929687h-41.351563c.027344-.226562 2.496094-18.789062 4.246094-27.761718 3.925781-20.113282 8.613281-33.234375 12.050781-40.984375 1.390625-3.136719 2.964844-6.300781 4.773438-9.261719 2.796874 1.050781 8.582031 2.921875 8.628906 2.9375zm46.164062 6.992188c6.519532 0 13.046875-.402344 19.515625-1.207032v69.285156h-39.027343v-69.296874c1.527343.191406 14.550781 1.21875 19.511718 1.21875zm54.8125-9.902344c.035156.058594.070313.121094.105469.179687 7.652344 12.644531 11.773437 27.640625 15 41.9375 2.667969 11.828125 4.550781 23.824219 5.945313 35.863281h-41.347657v-71.902343c6.917969-1.558594 13.691407-3.59375 20.296875-6.078125zm-147.097656 91.5-.640625.570312c-4.527344 4.035156-10.324219 6.257813-16.328125 6.257813-10.683594 0-20.519531-7.546875-21.6875-18.410157-2.242188-20.832031 13.964844-41.570312 26.285156-56.730468 7.34375-9.035156 18.484375-19.449219 32.875-23.339844-.472656.980469-.925781 1.964844-1.367187 2.957031-10.683594 24.042969-15.191407 50.847657-18 76.839844-.421875 3.910156-.792969 7.820313-1.128907 11.734375-.003906.042969-.003906.082031-.007812.121094zm50.203125 84.246094c0 1.917968-1.558594 3.476562-3.476563 3.476562h-47.203124c-2.339844 0-3.976563-2.304688-3.320313-4.519531 4.046875-13.632813 13.816406-21.964844 13.890625-22.023438 1.726562-1.425781 2.726562-3.546875 2.726562-5.785156 0-1.683594.007813-3.367187.019532-5.0625h37.367187v33.914063zm66.769531-67.136719h-49.382812c-9.585938 0-17.386719 7.800781-17.386719 17.394531v.828125h-37.113281c.304687-11.300781.890625-22.578125 1.835937-33.84375h154.71875c.074219.882813.148438 1.777344.226563 2.722656.777344 9.867188 1.320312 20.277344 1.617187 31.121094h-37.121093v-.828125c0-9.59375-7.800782-17.394531-17.394532-17.394531zm71.394532 66.097656c.660156 2.222656-1 4.515625-3.320313 4.515625h-47.207031c-1.914063 0-3.476563-1.558594-3.476563-3.476562v-33.914063h37.367188c.011719 1.695313.019531 3.378906.019531 5.0625 0 2.238281 1 4.359375 2.726562 5.785156.09375.078125 9.851563 8.417969 13.890626 22.027344zm8.558593-151.539063c12.296875 15.128907 28.539063 35.910157 26.304688 56.746094-1.160157 10.796875-11.128907 18.414063-21.691407 18.414063-5.976562 0-11.871093-2.285157-16.328124-6.257813l-.636719-.570312c-.007813-.066406-.011719-.125-.019531-.191406-1.503907-17.691407-3.882813-35.621094-7.820313-52.953126-2.964844-13.074218-6.765625-26.140624-12.566406-38.265624-.015625-.027344-.027344-.054688-.039063-.085938-.027344-.050781-.054687-.105469-.078125-.160156 14.402344 3.886718 25.542969 14.304687 32.875 23.324218zm67.433594-137.765624c0 13.871093-11.285156 25.15625-25.15625 25.15625-.609375 0-1.21875-.023438-1.824219-.066407 5.554688-14.3125 8.902344-29.246093 10.015625-44.605469 0-.035156.191407-2.832031.253907-4.199218 9.800781 3.445312 16.710937 12.738281 16.710937 23.714844zm-65.84375-41.707032c.355469 3.554688.535156 7.125.535156 10.675782 0 36.929687-18.746093 70.75-50.144531 90.472656-8.710938 5.472656-19.925781 5.765625-28.929688.820312-10.859374-5.960937-20.175781-8.984375-27.691406-8.984375-7.511718 0-16.828125 3.023438-27.691406 8.984375-8.824219 4.847656-19.878906 4.804688-28.476562-.535156-32.226563-20.023438-51.597657-55.953125-50.550782-93.769531.070313-2.542969.234375-5.105469.492188-7.664063zm-251.324219 66.796875c-.605468.042969-1.214844.0625-1.824218.0625-13.871094 0-25.15625-11.285156-25.15625-25.15625 0-10.976562 6.910156-20.265625 16.710937-23.710937.007813.1875.183594 3.332031.292969 4.714844 1.152344 15.179687 4.488281 29.9375 9.976562 44.089843zm0 0"/></svg>