<svg id="Layer_1" viewBox="0 0 512 512" xmlns="http://www.w3.org/2000/svg" data-name="Layer 1"><path d="m15.518 500.842v-321.037h481v321.037z" fill="#ff8748" fill-rule="evenodd"/><path d="m48.27 161.146v308.156c32.739-15.262 155.582-14.627 207.748 18.659 52.166-33.286 175.008-33.92 207.748-18.659v-308.156c-32.739-15.261-155.582-14.627-207.748 18.659-52.166-33.286-175.009-33.92-207.748-18.659z" fill="#b6dbff" fill-rule="evenodd"/><path d="m48.27 161.146v308.156c32.739-15.262 155.582-14.627 207.748 18.659v-308.156c-52.166-33.286-175.009-33.92-207.748-18.659z" fill="#e3f1ff" fill-rule="evenodd"/><path d="m448.464 464.934c5.696 1.423 10.823 2.901 15.301 4.368v-308.156c-3.905-1.82-9.105-3.411-15.301-4.751z" fill="#7cb5ef" fill-rule="evenodd"/><path d="m486.413 179.805h10.105v321.037h-10.105z" fill="#f2671f"/><g fill-rule="evenodd"><path d="m340.093 291.44h39.783v8.707c0 6.591-5.395 11.985-11.985 11.985h-15.812c-6.59 0-11.985-5.393-11.985-11.985v-8.707z" fill="#495586"/><path d="m340.093 291.44h28.284v8.707c0 6.591-5.395 11.985-11.985 11.985h-4.313c-6.59 0-11.985-5.393-11.985-11.985v-8.707z" fill="#5d689e"/><path d="m166.492 190.663c11.733 3.144 18.697 15.205 15.553 26.938-3.144 11.734-15.205 18.697-26.939 15.553s-18.697-15.205-15.553-26.938c3.144-11.734 15.205-18.697 26.939-15.553z" fill="#fdc72e"/><path d="m157.999 233.726c-.963-.125-1.929-.313-2.892-.572-11.734-3.144-18.697-15.205-15.553-26.938 2.376-8.869 9.848-15.011 18.421-16.125.963.125 1.929.313 2.892.572 11.733 3.144 18.697 15.205 15.553 26.938-2.377 8.869-9.848 15.011-18.421 16.125z" fill="#fcdb35"/><path d="m108.171 248.985c11.733 3.144 18.697 15.205 15.553 26.938s-15.205 18.697-26.939 15.553c-11.733-3.144-18.697-15.205-15.553-26.938 3.144-11.734 15.205-18.697 26.938-15.553z" fill="#2dd62d"/><path d="m99.676 292.048c-.963-.125-1.928-.313-2.891-.572-11.733-3.144-18.697-15.205-15.553-26.938 2.376-8.869 9.848-15.012 18.422-16.125.963.125 1.928.313 2.891.572 11.733 3.144 18.697 15.205 15.553 26.938-2.377 8.869-9.848 15.011-18.422 16.125z" fill="#43f043"/><path d="m207.315 273.142c11.734 3.144 18.697 15.204 15.553 26.938s-15.205 18.697-26.938 15.553c-11.734-3.144-18.697-15.205-15.553-26.938 3.144-11.734 15.205-18.697 26.938-15.553z" fill="#2a92fa"/><path d="m198.821 316.204c-.963-.125-1.928-.314-2.892-.572-11.734-3.144-18.697-15.205-15.553-26.938 2.376-8.869 9.848-15.011 18.421-16.125.963.125 1.928.313 2.892.572 11.734 3.144 18.697 15.204 15.553 26.938-2.376 8.869-9.848 15.011-18.421 16.125z" fill="#4eb1fc"/><path d="m100.499 276.937c-3.73-.996-5.946-4.828-4.949-8.558.996-3.73 4.828-5.946 8.558-4.949l.348.093c3.73.996 5.946 4.829 4.949 8.558s-4.829 5.946-8.558 4.949l-.348-.094zm58.321-58.322c-3.73-.996-5.946-4.828-4.949-8.558.996-3.73 4.829-5.946 8.558-4.949l.348.093c3.73.996 5.946 4.829 4.949 8.558s-4.828 5.946-8.558 4.949l-.348-.094zm40.822 82.479c-3.73-.996-5.946-4.828-4.949-8.558.996-3.73 4.829-5.946 8.558-4.949l.348.093c3.73.996 5.946 4.828 4.949 8.558-.996 3.73-4.829 5.946-8.558 4.949z" fill="#fff"/><path d="m317.985 234.204c0 8.13 6.653 14.783 14.783 14.783h54.434c8.13 0 14.783-6.653 14.783-14.783v-2.52c0-40.685 42-52.114 42-106.791 0-50.166-42-75.25-84-75.25s-84 25.083-84 75.25c0 54.677 42 66.106 42 106.791z" fill="#fcdb35"/><path d="m317.985 234.204c0 8.129 6.653 14.783 14.783 14.783h37.74c8.13 0 14.783-6.652 14.783-14.783v-6.336c0-40.685 42-52.114 42-106.791 0-37.46-23.42-60.931-52.771-70.419-4.802-.673-9.668-1.015-14.536-1.015-42 0-84 25.083-84 75.25 0 54.677 42 66.106 42 106.791v2.52z" fill="#ffeb87"/><path d="m194.68 292.531c.998-3.731 4.839-5.953 8.57-4.95l.347.091c3.731.997 5.953 4.834 4.95 8.57-.839 3.128-3.658 5.186-6.758 5.186-.588 0-1.2-.067-1.808-.226l-.352-.101c-3.731-1.003-5.948-4.83-4.95-8.57zm-40.821-82.49c1.003-3.731 4.839-5.938 8.58-4.94l.352.096c3.726 1.002 5.938 4.844 4.941 8.575-.843 3.128-3.673 5.186-6.762 5.186-.598 0-1.21-.077-1.817-.241l-.352-.096c-3.731-1.003-5.938-4.844-4.94-8.58zm-58.318 58.322c.998-3.731 4.839-5.943 8.58-4.94l.338.096c3.74 1.003 5.953 4.844 4.95 8.575-.839 3.123-3.668 5.186-6.758 5.186-.602 0-1.215-.082-1.822-.241l-.352-.101c-3.731-.998-5.948-4.839-4.936-8.575zm-7.553-2.015c-2.14 7.987 2.612 16.219 10.599 18.359 7.991 2.14 16.234-2.607 18.369-10.599 2.145-7.987-2.617-16.224-10.609-18.359-1.287-.352-2.588-.516-3.866-.516-6.632 0-12.701 4.425-14.494 11.115zm58.323-58.322c-1.041 3.87-.511 7.915 1.499 11.38 2 3.47 5.23 5.948 9.1 6.989 7.992 2.135 16.229-2.617 18.369-10.604s-2.617-16.224-10.609-18.364c-1.292-.347-2.603-.52-3.904-.52-2.598 0-5.158.679-7.466 2.015-3.47 2.005-5.953 5.235-6.989 9.105zm36.55 64.246c-2.863 2.42-5.201 5.345-6.931 8.647l-44.47-10.831c-.029-5.288-1.509-10.382-4.159-14.788l18.538-18.543c2.304 1.378 4.791 2.444 7.452 3.157 2.502.67 5.018.993 7.5.993 2.101 0 4.179-.256 6.199-.699l15.872 32.063zm22.64 7.625c-1.301-.337-2.612-.506-3.909-.506-2.603 0-5.163.679-7.471 2.01-3.47 2-5.953 5.24-6.989 9.11-2.145 7.977 2.617 16.22 10.599 18.359 3.87 1.041 7.919.506 11.38-1.499 3.47-2 5.948-5.23 6.989-9.1s.501-7.909-1.499-11.38c-2-3.47-5.23-5.953-9.1-6.994zm-110.533 18.345c2.502.67 5.022.988 7.49.988 10.72 0 20.668-6.011 25.671-15.54l44.499 10.84c.063 12.739 8.589 24.409 21.483 27.86 2.497.67 5.027.997 7.548.997 5.027 0 9.992-1.306 14.45-3.89 6.71-3.87 11.51-10.127 13.511-17.607 2.01-7.481.979-15.289-2.892-22.004-3.88-6.705-10.127-11.505-17.608-13.51-4.56-1.219-9.24-1.306-13.722-.318l-15.868-32.068c4.357-3.682 7.688-8.662 9.269-14.581 4.141-15.443-5.061-31.374-20.5-35.509-7.481-2.005-15.299-.974-21.998 2.897-6.71 3.871-11.51 10.127-13.511 17.608-2.01 7.481-.983 15.294 2.887 21.999.091.15.183.294.27.444l-18.538 18.538c-2.26-1.364-4.748-2.444-7.432-3.162-15.439-4.136-31.378 5.061-35.519 20.504-4.131 15.439 5.061 31.373 20.51 35.514zm127.553 62.887c-.824 3.162-3.663 5.249-6.772 5.249-.579 0-1.167-.082-1.76-.226-44.527-11.563-87.609-14.711-124.598-9.1-3.822.578-7.394-2.053-7.972-5.871-.578-3.832 2.049-7.389 5.871-7.972 39.399-5.977 83.208-2.82 130.209 9.389 3.75.969 5.991 4.791 5.022 8.531zm-133.129 61.451c-3.822.578-7.394-2.048-7.972-5.871-.578-3.822 2.049-7.389 5.871-7.967 39.399-5.972 83.208-2.81 130.209 9.389 3.75.969 5.991 4.786 5.022 8.536-.824 3.152-3.663 5.244-6.772 5.244-.579 0-1.167-.072-1.76-.231-44.527-11.563-87.609-14.711-124.598-9.1zm133.129-28.679c-.824 3.148-3.663 5.24-6.772 5.24-.579 0-1.167-.072-1.76-.222-44.518-11.568-87.609-14.711-124.598-9.11-3.822.578-7.394-2.049-7.972-5.871-.578-3.817 2.049-7.389 5.871-7.968 39.399-5.972 83.208-2.81 130.209 9.399 3.75.969 5.991 4.791 5.022 8.531zm208.53 22.808c-.578 3.822-4.15 6.449-7.968 5.871-36.994-5.61-80.075-2.463-124.593 9.1-.588.159-1.181.231-1.769.231-3.109 0-5.948-2.092-6.772-5.244-.969-3.75 1.282-7.568 5.022-8.536 47-12.2 90.81-15.361 130.209-9.389 3.822.578 6.449 4.145 5.871 7.967zm-141.102-55.58c-.969-3.74 1.282-7.562 5.022-8.531 47-12.209 90.81-15.366 130.209-9.389 3.822.583 6.449 4.141 5.871 7.972-.578 3.817-4.15 6.449-7.968 5.871-36.994-5.611-80.075-2.463-124.593 9.1-.588.145-1.181.226-1.769.226-3.109 0-5.948-2.087-6.772-5.249zm0 32.771c-.969-3.74 1.282-7.562 5.022-8.531 47-12.209 90.81-15.371 130.209-9.399 3.822.578 6.449 4.15 5.871 7.968-.578 3.832-4.15 6.449-7.968 5.871-36.994-5.601-80.075-2.458-124.593 9.11-.588.149-1.181.222-1.769.222-3.109 0-5.948-2.092-6.772-5.24zm28.13-124.304c0-3.866 3.133-6.999 7.003-6.999h69.799c3.871 0 6.999 3.133 6.999 6.999s-3.128 7.003-6.999 7.003h-69.799c-3.87 0-7.003-3.138-7.003-7.003zm34.9-240.885v-17.709c0-3.866 3.128-7.003 6.999-7.003s7.003 3.138 7.003 7.003v17.709c0 3.866-3.133 6.999-7.003 6.999s-6.999-3.133-6.999-6.999zm52.312 9.818 8.845-15.337c1.933-3.35 6.223-4.497 9.563-2.564 3.35 1.933 4.502 6.218 2.569 9.563l-8.859 15.337c-1.301 2.246-3.649 3.499-6.068 3.499-1.191 0-2.391-.299-3.49-.94-3.355-1.933-4.502-6.213-2.559-9.558zm-111.603-8.339c-1.928-3.345-.781-7.63 2.559-9.563 3.35-1.933 7.63-.785 9.573 2.564l8.85 15.337c1.928 3.345.791 7.625-2.559 9.558-1.104.641-2.309.94-3.49.94-2.42 0-4.781-1.253-6.073-3.499l-8.859-15.337zm147.753 47.921c-1.933-3.35-.781-7.63 2.569-9.563l15.308-8.854c3.374-1.933 7.664-.786 9.592 2.564 1.928 3.345.771 7.625-2.555 9.558l-15.328 8.855c-1.109.636-2.314.94-3.519.94-2.42 0-4.772-1.253-6.068-3.499zm-190.392-15.853c1.938-3.35 6.218-4.497 9.558-2.564l15.342 8.854c3.35 1.933 4.502 6.213 2.559 9.563-1.292 2.246-3.649 3.499-6.073 3.499-1.176 0-2.386-.304-3.485-.94l-15.342-8.855c-3.34-1.933-4.487-6.213-2.559-9.558zm121.817 237.893c0 2.699-2.28 4.979-4.979 4.979h-15.819c-2.699 0-4.979-2.28-4.979-4.979v-1.711h25.778v1.711zm-20.798 18.981h15.819c10.459 0 18.981-8.512 18.981-18.981v-1.711h3.972c3.87 0 6.999-3.128 6.999-6.999s-3.128-7.003-6.999-7.003h-61.721c-3.87 0-7.003 3.133-7.003 7.003s3.133 6.999 7.003 6.999h3.972v1.711c0 10.469 8.507 18.981 18.977 18.981zm137.665 174.866v-307.325h-18.798v282.758c0 2.391-1.205 4.617-3.23 5.9-2.024 1.287-4.531 1.456-6.7.448-15.376-7.167-53.748-10.551-93.326-8.237-46.451 2.709-85.773 12.349-107.892 26.457h229.945zm-467.442-307.325v307.326h229.935c-22.119-14.108-61.436-23.748-107.887-26.457-39.568-2.323-77.94 1.07-93.311 8.237-2.159 1.007-4.7.839-6.719-.448-2.01-1.282-3.229-3.509-3.229-5.9v-282.758zm32.791-20.948v293.816c20.355-5.683 54.467-8.059 90.077-5.982 42.151 2.463 79.063 10.59 103.852 22.669v-292.606c-22.601-13.048-60.39-21.936-104.672-24.52-36.459-2.126-71.9.579-89.258 6.623zm238.689 24.934c-3.61-5.042-7.379-10.296-10.84-16.109-7.548 2.742-14.229 5.779-19.921 9.067v292.611c24.79-12.079 61.711-20.206 103.853-22.669 35.606-2.077 69.727.299 90.096 5.982v-293.806c-3.711-1.277-8.291-2.429-13.626-3.422-4.772 11.071-11.163 20.003-17.145 28.347-9.298 12.966-17.319 24.163-17.319 40.705v2.709c0 11.987-9.756 21.743-21.748 21.743h-54.278c-11.993 0-21.753-9.756-21.753-21.743v-2.709c0-16.542-8.02-27.739-17.318-40.705zm44.778-24.288c-5.22-3.215-9.818-7.895-12.86-14.393-5.129-10.999-3.23-16.581-2.27-17.092.034-.01.072-.014.13-.014.323 0 1.2.173 2.511 1.118 4.801 3.47 10.209 13.27 12.489 30.381zm27.739 75.443h-12.628v-55.898c4.14.453 8.493.453 12.628 0zm15.111-75.443c2.289-17.111 7.703-26.91 12.503-30.381 1.306-.95 2.188-1.118 2.506-1.118.063 0 .101.005.121.01.974.516 2.858 6.097-2.27 17.097-3.032 6.498-7.63 11.178-12.86 14.393zm-21.42-109.554c36.979 0 76.773 21.29 76.773 68.044 0 27.026-11.153 42.595-21.941 57.643-9.814 13.679-19.941 27.821-19.941 48.861v2.709c0 4.266-3.48 7.741-7.75 7.741h-6.83v-57.517c0-.598 0-1.191.01-1.774 11.78-4.589 21.319-13.192 26.65-24.626 6.329-13.573 6.281-25.734-.14-32.535-4.232-4.478-10.401-5.702-16.523-3.273-10.267 4.083-21.155 19.251-23.527 49.618-2.318.376-4.608.549-6.782.549s-4.459-.173-6.786-.549c-2.362-30.366-13.265-45.535-23.532-49.618-6.121-2.429-12.291-1.205-16.509 3.273-6.42 6.801-6.473 18.962-.14 32.535 5.326 11.433 14.865 20.037 26.65 24.626v59.291h-6.82c-4.271 0-7.751-3.475-7.751-7.741v-2.709c0-21.04-10.141-35.182-19.941-48.861-10.792-15.048-21.95-30.617-21.95-57.643 0-46.754 39.799-68.044 76.778-68.044zm136.745 115.854h-25.787v-11.674c0-2.719-1.542-5.196-4.049-6.343-4.82-2.241-11.183-4.16-18.991-5.721 1.783-7.11 2.844-15.043 2.844-24.071 0-25.392-9.948-46.75-28.809-61.759-16.422-13.082-38.43-20.288-61.952-20.288s-45.53 7.206-61.962 20.288c-18.846 15.009-28.819 36.367-28.819 61.759 0 14.99 2.964 26.963 7.293 37.134-7.649 2.868-14.508 6.044-20.48 9.495-24.529-14.108-64.54-23.661-110.851-26.366-42.32-2.468-82.519 1.359-100.04 9.529-2.468 1.147-4.039 3.625-4.039 6.343v11.674h-25.795c-3.856 0-6.999 3.138-6.999 7.004v321.328c0 3.866 3.143 6.999 6.999 6.999h481.436c3.856 0 6.989-3.133 6.989-6.999v-321.328c0-3.866-3.133-7.004-6.989-7.004z"/></g></svg>